<svg width="16" height="17" viewBox="0 0 16 17" fill="none" xmlns="http://www.w3.org/2000/svg">
<path fill-rule="evenodd" clip-rule="evenodd" d="M8 15.9794C11.866 15.9794 15 12.8454 15 8.97937C15 5.11338 11.866 1.97937 8 1.97937C4.13401 1.97937 1 5.11338 1 8.97937C1 12.8454 4.13401 15.9794 8 15.9794ZM8 16.9794C12.4183 16.9794 16 13.3976 16 8.97937C16 4.56109 12.4183 0.97937 8 0.97937C3.58172 0.97937 0 4.56109 0 8.97937C0 13.3976 3.58172 16.9794 8 16.9794Z" fill="currentColor"/>
<path fill-rule="evenodd" clip-rule="evenodd" d="M4 8.97937C4 9.25551 4.22386 9.47937 4.5 9.47937H10.2929L8.14645 11.6258C7.95118 11.8211 7.95118 12.1377 8.14645 12.3329C8.34171 12.5282 8.65829 12.5282 8.85355 12.3329L11.8536 9.33292C12.0488 9.13766 12.0488 8.82108 11.8536 8.62582L8.85355 5.62582C8.65829 5.43055 8.34171 5.43055 8.14645 5.62582C7.95118 5.82108 7.95118 6.13766 8.14645 6.33292L10.2929 8.47937H4.5C4.22386 8.47937 4 8.70323 4 8.97937Z" fill="currentColor"/>
</svg>
